<?xml version="1.0" standalone="no"?><!DOCTYPE svg PUBLIC "-//W3C//DTD SVG 1.1//EN" "http://www.w3.org/Graphics/SVG/1.1/DTD/svg11.dtd"><svg t="1616911357094" class="icon" viewBox="0 0 1126 1024" version="1.1" xmlns="http://www.w3.org/2000/svg" p-id="2070" xmlns:xlink="http://www.w3.org/1999/xlink" width="219.921875" height="200"><defs><style type="text/css"></style></defs><path d="M887.46051026 812.63537598c19.20684815 0 29.88555908 8.4539795 32.03613281 25.28778076l0.37078857 6.67419433c0 21.35742188-10.82702637 32.03613281-32.4810791 32.03613281H173.69250488c-19.28100586 0-29.9597168-8.4539795-32.11029053-25.28778076L141.21142578 844.67150879c0-21.35742188 10.82702637-32.03613281 32.48107911-32.03613282h713.69384765zM530.53942872 141.21142578c21.65405273 0 32.48107911 10.67871094 32.48107909 31.9619751l-0.07415771 483.50830078 128.96026611-126.95800781c13.57086182-13.34838867 27.14172364-14.83154297 40.78674317-4.44946289l5.11688232 4.44946289c15.27648926 15.05401612 15.27648926 30.10803223 0 45.23620605l-182.94708252 180.20324707-0.59326172 0.66741944a35.22491455 35.22491455 0 0 1-20.39337158 11.12365723h-5.19104004a30.77545166 30.77545166 0 0 1-15.20233154-6.67419434l-5.19104005-4.44946289-0.59326171-0.66741944-182.87292481-180.20324707c-13.57086182-13.42254638-15.05401612-26.84509278-4.44946289-40.19348144l4.44946289-5.04272461c15.35064697-15.05401612 30.62713623-15.05401612 45.97778321 0L497.9841919 655.12438965V173.17340088c0-18.91021729 8.60229492-29.44061279 25.65856933-31.59118653L530.53942872 141.21142578z" p-id="2071" fill="#ffffff"></path></svg>