<?xml version="1.0" standalone="no"?><!DOCTYPE svg PUBLIC "-//W3C//DTD SVG 1.1//EN" "http://www.w3.org/Graphics/SVG/1.1/DTD/svg11.dtd"><svg t="1608794102475" class="icon" viewBox="0 0 1024 1024" version="1.1" xmlns="http://www.w3.org/2000/svg" p-id="1326" xmlns:xlink="http://www.w3.org/1999/xlink" width="200" height="200"><defs><style type="text/css"></style></defs><path d="M511.3 495.8c-5.7 0-10.3-4.6-10.3-10.3v-379c0-5.7 4.6-10.3 10.3-10.3 5.7 0 10.3 4.6 10.3 10.3v379c0 5.7-4.6 10.3-10.3 10.3z" fill="#ffffff" p-id="1327"></path><path d="M652.3 819.8H370.4c-7.5 0-14.4-4.1-18-10.6L211.4 556c-3.6-6.5-3.5-14.5 0.5-20.9L493.8 78c3.7-6.1 10.4-9.8 17.5-9.8s13.8 3.7 17.5 9.8l281.9 457.2c3.9 6.4 4.1 14.3 0.5 20.8l-141 253.2c-3.5 6.6-10.4 10.6-17.9 10.6z m-269.8-41.2h257.7l129.2-232-258-418.5-258 418.5 129.1 232z" fill="#ffffff" p-id="1328"></path><path d="M511.3 587.3c-30.9 0-56.1-25.1-56.1-56.1 0-30.9 25.1-56.1 56.1-56.1 30.9 0 56.1 25.1 56.1 56.1s-25.2 56.1-56.1 56.1z m0-91.5c-19.5 0-35.4 15.9-35.4 35.4s15.9 35.4 35.4 35.4 35.4-15.9 35.4-35.4c0.1-19.5-15.8-35.4-35.4-35.4zM707.4 924.4H315.3c-11.4 0-20.6-9.2-20.6-20.6V799.2c0-11.4 9.2-20.6 20.6-20.6h392.1c11.4 0 20.6 9.2 20.6 20.6v104.6c0 11.4-9.2 20.6-20.6 20.6z m-371.5-41.2h350.9v-63.3H335.9v63.3z" fill="#ffffff" p-id="1329"></path></svg>